PathFileType	4	(X/Y/Z)	/Users/itak/Documents/Research/Walk-IL/dataset/trc/00478_00167.trc
DataRate	CameraRate	NumFrames	NumMarkers	Units	OrigDataRate	OrigDataStartFrame	OrigNumFrames
100.000000	100.000000	4	53	mm	100.000000	339	543
Frame#	Time	RPSI			LPSI			L3			STRN			T10			C7			CLAV			RBAK			LBAK			LSHO			LUPA			LAEL			LAOL			LWTS			LWPS			LFRA			LIFD			LHPS			LHTS			RSHO			RUPA			RAEL			RAOL			RWTS			RWPS			RFRA			RIFD			RHTS			RHPS			RBHD			LFHD			RFHD			LBHD			LHIP			RHIP			RASI			LASI			LKNE			LTHI			LANK			LTIP			LTOE			LMT1			LMT5			LHEE			RKNE			RTHI			RANK			RTIP			RTOE			RMT1			RMT5			RHEE			
		X1	Y1	Z1	X2	Y2	Z2	X3	Y3	Z3	X4	Y4	Z4	X5	Y5	Z5	X6	Y6	Z6	X7	Y7	Z7	X8	Y8	Z8	X9	Y9	Z9	X10	Y10	Z10	X11	Y11	Z11	X12	Y12	Z12	X13	Y13	Z13	X14	Y14	Z14	X15	Y15	Z15	X16	Y16	Z16	X17	Y17	Z17	X18	Y18	Z18	X19	Y19	Z19	X20	Y20	Z20	X21	Y21	Z21	X22	Y22	Z22	X23	Y23	Z23	X24	Y24	Z24	X25	Y25	Z25	X26	Y26	Z26	X27	Y27	Z27	X28	Y28	Z28	X29	Y29	Z29	X30	Y30	Z30	X31	Y31	Z31	X32	Y32	Z32	X33	Y33	Z33	X34	Y34	Z34	X35	Y35	Z35	X36	Y36	Z36	X37	Y37	Z37	X38	Y38	Z38	X39	Y39	Z39	X40	Y40	Z40	X41	Y41	Z41	X42	Y42	Z42	X43	Y43	Z43	X44	Y44	Z44	X45	Y45	Z45	X46	Y46	Z46	X47	Y47	Z47	X48	Y48	Z48	X49	Y49	Z49	X50	Y50	Z50	X51	Y51	Z51	X52	Y52	Z52	X53	Y53	Z53	

340	3.39	232.4914703369141	931.9835205078125	-360.5101013183594	221.1330871582031	934.2260131835938	-218.5027770996094	198.3335113525391	1035.511840820312	-291.1714782714844	-100.4087829589844	1187.972045898438	-313.3437194824219	189.8287506103516	1158.81201171875	-277.7262878417969	88.66126251220703	1414.524047851562	-297.8899536132812	-81.32199096679688	1305.474365234375	-309.8846435546875	181.9356689453125	1299.870727539062	-374.9258422851562	114.0963287353516	1373.069213867188	-194.5154418945312	-0.592547595500946	1379.500854492188	-131.5489501953125	11.21599578857422	1265.329956054688	-29.22746467590332	10.24398899078369	1050.993774414062	13.61861801147461	99.42156982421875	1042.173706054688	-38.02355575561523	-51.27978515625	842.3936157226562	-34.97059631347656	-7.812586784362793	832.3600463867188	24.77959251403809	-6.107635498046875	962.1600952148438	22.09526634216309	-37.25664520263672	682.6907348632812	-19.00152015686035	-5.584200859069824	755.6365966796875	27.02297782897949	-58.25955200195312	754.8690795898438	-23.09574127197266	58.28292083740234	1375.608642578125	-462.2747802734375	100.4890823364258	1324.173583984375	-531.8347778320312	159.1787414550781	1054.427001953125	-616.6161499023438	202.4716033935547	1030.979248046875	-569.3324584960938	28.0392894744873	863.6604614257812	-602.7484130859375	98.42038726806641	842.1878662109375	-652.0609130859375	152.4661102294922	996.8468017578125	-631.6945190429688	0.385831356048584	712.1531372070312	-625.6771240234375	-1.694180727005005	772.3470458984375	-625.0650024414062	67.75960540771484	759.7706909179688	-659.6580810546875	-51.83285903930664	1596.716796875	-404.4322509765625	-186.9582824707031	1565.484497070312	-251.0831298828125	-184.7887268066406	1568.146850585938	-382.0110473632812	-40.55398559570312	1602.980834960938	-227.4492645263672	98.07670593261719	821.63623046875	-104.6707458496094	107.140495300293	837.642578125	-510.1900939941406	11.29450130462646	876.73828125	-437.5892333984375	-4.557446956634521	843.1212768554688	-183.9511108398438	212.0419311523438	424.1860656738281	-132.3296966552734	134.6886444091797	561.2578125	-120.0367813110352	467.5952758789062	76.05417633056641	-92.06969451904297	285.606201171875	289.8877258300781	-106.8824920654297	349.5820007324219	40.33199310302734	-300.5632019042969	413.5448303222656	70.03030395507812	-262.8043518066406	344.9195556640625	38.39033889770508	-183.7035064697266	528.4142456054688	123.5655364990234	-117.2039031982422	-47.78165435791016	466.2434692382812	-484.7838134765625	26.33170700073242	717.1637573242188	-520.426025390625	-84.01893615722656	36.12799835205078	-494.5487670898438	-78.92815399169922	327.3930969238281	-496.3994750976562	-295.6004333496094	54.04354476928711	-440.3493957519531	-231.2170257568359	53.01085662841797	-407.2972717285156	-217.7091979980469	44.05863189697266	-512.6741333007812	-18.22512435913086	27.51326560974121	-450.7320861816406	
341	3.4	223.1276092529297	931.5594482421875	-363.7433166503906	212.1238555908203	933.1342163085938	-221.5699615478516	189.3997955322266	1034.41748046875	-294.9156188964844	-109.1544647216797	1188.3115234375	-315.6572265625	181.9143218994141	1157.701538085938	-282.2875671386719	81.62361907958984	1414.021850585938	-302.3530578613281	-89.26206970214844	1305.797973632812	-312.2818908691406	173.42041015625	1298.686157226562	-380.2035217285156	108.2880020141602	1372.327026367188	-199.3621673583984	-5.417304992675781	1379.392700195312	-134.7136383056641	8.312839508056641	1264.764404296875	-33.04705047607422	8.221349716186523	1050.53759765625	9.532076835632324	95.76323699951172	1041.586059570312	-44.67447280883789	-53.72200393676758	841.7584838867188	-37.73956298828125	-9.500983238220215	831.94677734375	21.51713943481445	-7.749058246612549	961.6771850585938	18.43694305419922	-39.53841018676758	682.2989501953125	-21.85863876342773	-7.26814603805542	755.1891479492188	23.80797958374023	-60.55077362060547	754.392333984375	-25.75707054138184	49.19989395141602	1374.773803710938	-466.3519592285156	90.45066070556641	1322.802368164062	-536.1746826171875	147.686279296875	1052.643310546875	-620.8271484375	191.2974243164062	1029.709594726562	-573.635986328125	19.67597389221191	859.9059448242188	-606.4033813476562	90.22972106933594	839.6075439453125	-656.0446166992188	141.7468719482422	995.0050659179688	-635.8832397460938	-5.639193534851074	708.0250854492188	-629.4031982421875	-8.752041816711426	768.2244262695312	-628.6190185546875	60.81179809570312	756.7297973632812	-663.6072387695312	-58.93231201171875	1597.115478515625	-407.316650390625	-193.0431518554688	1566.296875	-253.0043487548828	-191.8323364257812	1568.972900390625	-383.9389953613281	-46.38075256347656	1603.341796875	-230.3860321044922	89.43854522705078	820.5773315429688	-107.2177047729492	95.76932525634766	837.28369140625	-512.3486328125	0.9592432975769043	877.2239990234375	-439.7653503417969	-13.52601718902588	842.6101684570312	-186.3461151123047	203.0304565429688	423.1339416503906	-134.1035003662109	125.6711196899414	560.349365234375	-122.0669631958008	464.7395324707031	79.05708312988281	-91.53734588623047	278.8506469726562	289.9936828613281	-107.6828155517578	349.1205139160156	40.5927848815918	-300.4303283691406	412.2315979003906	71.02558135986328	-262.5906982421875	344.2132263183594	38.02388000488281	-183.7061157226562	524.068603515625	128.3925628662109	-116.6429138183594	-58.90105819702148	465.8940124511719	-482.4469909667969	15.0643253326416	716.4019165039062	-520.9500122070312	-84.90078735351562	37.86022186279297	-492.6823120117188	-88.66334533691406	326.4358520507812	-493.1644592285156	-297.2221374511719	50.07381820678711	-437.6400451660156	-232.6212463378906	48.94592666625977	-404.6983337402344	-218.4461364746094	44.67772674560547	-511.0652160644531	-18.81460762023926	28.48274040222168	-449.5870056152344	
342	3.41	213.84814453125	931.5426635742188	-366.5270690917969	203.0535888671875	932.2954711914062	-224.2080688476562	180.4849700927734	1033.807495117188	-298.3374633789062	-118.0849227905273	1188.949584960938	-318.1417236328125	173.9420471191406	1157.019897460938	-286.6030883789062	74.29132843017578	1413.864868164062	-306.8658447265625	-97.33749389648438	1306.397094726562	-314.7967834472656	164.6923828125	1297.976684570312	-385.5393371582031	102.1236343383789	1371.963012695312	-204.245361328125	-10.62463188171387	1379.626098632812	-137.9842987060547	5.157143115997314	1264.594360351562	-36.99465942382812	6.121407985687256	1050.513427734375	5.347345352172852	91.88357543945312	1041.41357421875	-51.50772476196289	-56.38593292236328	841.5921020507812	-40.47015380859375	-11.26022148132324	831.9739379882812	18.13755798339844	-9.437925338745117	961.61279296875	14.70359897613525	-42.11578750610352	682.3390502929688	-24.68408393859863	-9.063430786132812	755.1976928710938	20.50495147705078	-62.94508743286133	754.345703125	-28.44999504089355	39.79712295532227	1374.220825195312	-470.4797058105469	79.99178314208984	1321.672607421875	-540.564208984375	135.7228240966797	1051.06396484375	-624.9570922851562	179.6861419677734	1028.724487304688	-577.8609619140625	11.40909481048584	856.0825805664062	-610.068359375	82.23980712890625	837.1349487304688	-659.9567260742188	130.7143402099609	993.3734130859375	-639.9908447265625	-11.10846424102783	703.8226318359375	-633.1397094726562	-15.44477844238281	764.0208129882812	-632.241943359375	54.28622436523438	753.7353515625	-667.4849243164062	-66.30840301513672	1597.752563476562	-410.2660217285156	-199.3856353759766	1567.34423828125	-254.9835357666016	-199.1553344726562	1570.045776367188	-385.9097900390625	-52.47007369995117	1603.924438476562	-233.4037170410156	80.58126068115234	819.5997924804688	-109.6906280517578	84.71308898925781	837.4668579101562	-514.2532958984375	-9.136532783508301	878.35107421875	-442.0193481445312	-22.5822696685791	842.4600219726562	-188.8747711181641	193.0632934570312	421.8724975585938	-136.0436553955078	115.9312896728516	559.4010620117188	-124.3395767211914	461.4197998046875	82.45976257324219	-91.13360595703125	271.3153991699219	289.988037109375	-108.6488647460938	348.7008972167969	40.67488861083984	-300.4245910644531	410.6351623535156	72.13874053955078	-262.4299621582031	343.3865356445312	37.55129623413086	-183.7260437011719	518.9929809570312	133.7006988525391	-116.300895690918	-70.41059112548828	466.3016052246094	-480.2842407226562	3.831952810287476	716.4182739257812	-521.363037109375	-85.72624206542969	39.53316879272461	-491.294677734375	-98.35908508300781	326.0759887695312	-490.4636840820312	-298.4985961914062	47.28343963623047	-435.4380798339844	-233.7320098876953	45.96484375	-402.6446228027344	-219.1387023925781	45.52750778198242	-509.6852111816406	-19.39676475524902	29.51737022399902	-448.8997802734375	
343	3.42	204.5958099365234	931.8657836914062	-368.9349365234375	193.947509765625	931.7611083984375	-226.4865112304688	171.5656890869141	1033.6201171875	-301.4876098632812	-127.1517639160156	1189.89404296875	-320.7507019042969	165.9349060058594	1156.723266601562	-290.6596069335938	66.72129058837891	1414.032592773438	-311.3796081542969	-105.4946594238281	1307.271728515625	-317.4041137695312	155.7891845703125	1297.708129882812	-390.8847961425781	95.62556457519531	1371.97900390625	-209.10498046875	-16.21749687194824	1380.208862304688	-141.3418579101562	1.684153079986572	1264.863037109375	-41.0167350769043	3.917467594146729	1050.9462890625	1.075117230415344	87.77618408203125	1041.7041015625	-58.46622085571289	-59.26758193969727	841.9055786132812	-43.14034652709961	-13.09000205993652	832.45556640625	14.66115951538086	-11.19542694091797	961.9976806640625	10.9155855178833	-44.92720413208008	682.800048828125	-27.44259262084961	-10.94069862365723	755.6752319335938	17.12756156921387	-65.45829772949219	754.739013671875	-31.10460090637207	30.13270378112793	1373.978637695312	-474.6053466796875	69.16120910644531	1320.838623046875	-544.9613647460938	123.3162307739258	1049.758911132812	-628.9755859375	167.6622009277344	1028.075439453125	-581.9833984375	3.2180016040802	852.2832641601562	-613.7355346679688	74.40898895263672	834.8792724609375	-663.7973022460938	119.3661651611328	992.0294799804688	-643.9913330078125	-15.98625564575195	699.6487426757812	-636.8517456054688	-21.73232269287109	759.8094482421875	-635.9203491210938	48.17658233642578	750.908203125	-671.2882690429688	-73.91524505615234	1598.584594726562	-413.2434387207031	-205.9685211181641	1568.588256835938	-257.0116577148438	-206.7098083496094	1571.3173828125	-387.9158020019531	-58.80904006958008	1604.693481445312	-236.4688568115234	71.61518096923828	818.7507934570312	-112.0702743530273	74.01929473876953	838.0263671875	-515.973876953125	-19.02038764953613	879.9135131835938	-444.3017883300781	-31.6959400177002	842.6919555664062	-191.4322509765625	182.0585479736328	420.3639831542969	-138.0810852050781	105.422477722168	558.4022827148438	-126.8124465942383	457.5753479003906	86.30800628662109	-90.95236206054688	262.9615783691406	289.8540954589844	-109.7410736083984	348.2723388671875	40.5554313659668	-300.5497741699219	408.6302795410156	73.39173889160156	-262.34375	342.4625854492188	36.95359802246094	-183.7527313232422	513.0631713867188	139.5318298339844	-116.3140716552734	-81.88973999023438	467.186279296875	-478.5234680175781	-7.299897193908691	717.04736328125	-521.714599609375	-86.40651702880859	40.92660903930664	-490.377197265625	-107.5321731567383	326.0096435546875	-488.4864196777344	-299.3950805664062	45.50227737426758	-433.7455139160156	-234.5117645263672	43.96695709228516	-401.1560974121094	-219.7400360107422	46.38520431518555	-508.5920715332031	-19.89595603942871	30.43483734130859	-448.6016845703125	
